<mxfile host="app.diagrams.net" modified="2023-04-15T19:24:08.485Z" agent="Mozilla/5.0 (X11; Ubuntu; Linux x86_64; rv:109.0) Gecko/20100101 Firefox/112.0" etag="aBX6yV9o_XRHWZkl6b4z" version="21.1.8">
  <diagram name="Page-1" id="UoKeEZk8qrJiN1z6IXMx">
    <mxGraphModel dx="2212" dy="766" grid="1" gridSize="10" guides="1" tooltips="1" connect="1" arrows="1" fold="1" page="1" pageScale="1" pageWidth="850" pageHeight="1100" math="0" shadow="0">
      <root>
        <mxCell id="0" />
        <mxCell id="1" parent="0" />
        <mxCell id="5Q4gcwFhn1eUK5E1_kNt-130" value="" style="rounded=0;whiteSpace=wrap;html=1;glass=0;fillColor=none;strokeWidth=3;strokeColor=#ff3333;" parent="1" vertex="1">
          <mxGeometry y="640" width="890" height="210" as="geometry" />
        </mxCell>
        <mxCell id="5Q4gcwFhn1eUK5E1_kNt-127" value="" style="rounded=0;whiteSpace=wrap;html=1;glass=0;fillColor=none;strokeWidth=3;strokeColor=#f57900;" parent="1" vertex="1">
          <mxGeometry y="380" width="890" height="250" as="geometry" />
        </mxCell>
        <mxCell id="5Q4gcwFhn1eUK5E1_kNt-125" value="" style="rounded=0;whiteSpace=wrap;html=1;glass=0;fillColor=none;strokeWidth=3;strokeColor=#73d216;" parent="1" vertex="1">
          <mxGeometry y="30" width="890" height="340" as="geometry" />
        </mxCell>
        <mxCell id="5Q4gcwFhn1eUK5E1_kNt-5" style="edgeStyle=orthogonalEdgeStyle;rounded=0;orthogonalLoop=1;jettySize=auto;html=1;endArrow=classic;endFill=1;entryX=0;entryY=0.5;entryDx=0;entryDy=0;strokeColor=#555753;" parent="1" source="5Q4gcwFhn1eUK5E1_kNt-1" target="5Q4gcwFhn1eUK5E1_kNt-7" edge="1">
          <mxGeometry relative="1" as="geometry">
            <mxPoint x="290" y="200" as="targetPoint" />
          </mxGeometry>
        </mxCell>
        <mxCell id="5Q4gcwFhn1eUK5E1_kNt-30" style="edgeStyle=orthogonalEdgeStyle;rounded=0;orthogonalLoop=1;jettySize=auto;html=1;curved=1;entryX=0;entryY=0.5;entryDx=0;entryDy=0;strokeColor=#555753;" parent="1" source="5Q4gcwFhn1eUK5E1_kNt-1" target="5Q4gcwFhn1eUK5E1_kNt-1" edge="1">
          <mxGeometry relative="1" as="geometry">
            <mxPoint x="90" y="300" as="targetPoint" />
            <Array as="points">
              <mxPoint x="110" y="270" />
              <mxPoint x="40" y="270" />
              <mxPoint x="40" y="200" />
            </Array>
          </mxGeometry>
        </mxCell>
        <mxCell id="5Q4gcwFhn1eUK5E1_kNt-1" value="" style="shape=image;html=1;verticalAlign=top;verticalLabelPosition=bottom;labelBackgroundColor=#ffffff;imageAspect=0;aspect=fixed;image=https://cdn2.iconfinder.com/data/icons/whcompare-isometric-web-hosting-servers/50/connected-globe-128.png" parent="1" vertex="1">
          <mxGeometry x="70" y="160" width="80" height="80" as="geometry" />
        </mxCell>
        <mxCell id="5Q4gcwFhn1eUK5E1_kNt-6" value="population definition &amp;amp;&lt;br&gt;sampling" style="rounded=0;whiteSpace=wrap;html=1;spacing=0;" parent="1" vertex="1">
          <mxGeometry x="170" y="175" width="90" height="50" as="geometry" />
        </mxCell>
        <mxCell id="5Q4gcwFhn1eUK5E1_kNt-11" style="edgeStyle=orthogonalEdgeStyle;rounded=0;orthogonalLoop=1;jettySize=auto;html=1;startArrow=none;strokeColor=#555753;" parent="1" source="5Q4gcwFhn1eUK5E1_kNt-12" target="5Q4gcwFhn1eUK5E1_kNt-10" edge="1">
          <mxGeometry relative="1" as="geometry" />
        </mxCell>
        <mxCell id="5Q4gcwFhn1eUK5E1_kNt-7" value="" style="shape=image;verticalLabelPosition=bottom;labelBackgroundColor=default;verticalAlign=top;aspect=fixed;imageAspect=0;image=https://www.seekpng.com/png/full/302-3022057_manpower-hr-people-icon-png.png;" parent="1" vertex="1">
          <mxGeometry x="300" y="161.73000000000002" width="100" height="76.54" as="geometry" />
        </mxCell>
        <mxCell id="5Q4gcwFhn1eUK5E1_kNt-18" style="edgeStyle=orthogonalEdgeStyle;rounded=0;orthogonalLoop=1;jettySize=auto;html=1;endArrow=none;endFill=0;strokeColor=#555753;" parent="1" source="5Q4gcwFhn1eUK5E1_kNt-10" edge="1">
          <mxGeometry relative="1" as="geometry">
            <mxPoint x="630" y="200" as="targetPoint" />
          </mxGeometry>
        </mxCell>
        <mxCell id="5Q4gcwFhn1eUK5E1_kNt-10" value="" style="sketch=0;shadow=0;dashed=0;html=1;strokeColor=none;labelPosition=center;verticalLabelPosition=bottom;verticalAlign=top;outlineConnect=0;align=center;shape=mxgraph.office.databases.database;fillColor=#2072B8;" parent="1" vertex="1">
          <mxGeometry x="540" y="155" width="60" height="90" as="geometry" />
        </mxCell>
        <mxCell id="5Q4gcwFhn1eUK5E1_kNt-14" value="" style="edgeStyle=orthogonalEdgeStyle;rounded=0;orthogonalLoop=1;jettySize=auto;html=1;endArrow=none;" parent="1" source="5Q4gcwFhn1eUK5E1_kNt-7" target="5Q4gcwFhn1eUK5E1_kNt-12" edge="1">
          <mxGeometry relative="1" as="geometry">
            <mxPoint x="400" y="200" as="sourcePoint" />
            <mxPoint x="530" y="200" as="targetPoint" />
          </mxGeometry>
        </mxCell>
        <mxCell id="5Q4gcwFhn1eUK5E1_kNt-12" value="measurement" style="rounded=0;whiteSpace=wrap;html=1;" parent="1" vertex="1">
          <mxGeometry x="420" y="190" width="90" height="20" as="geometry" />
        </mxCell>
        <mxCell id="5Q4gcwFhn1eUK5E1_kNt-29" style="edgeStyle=orthogonalEdgeStyle;rounded=0;orthogonalLoop=1;jettySize=auto;html=1;strokeColor=#555753;" parent="1" source="5Q4gcwFhn1eUK5E1_kNt-16" target="5Q4gcwFhn1eUK5E1_kNt-24" edge="1">
          <mxGeometry relative="1" as="geometry" />
        </mxCell>
        <mxCell id="5Q4gcwFhn1eUK5E1_kNt-16" value="preprocessing,&lt;br&gt;train/cv/test split" style="rounded=0;whiteSpace=wrap;html=1;" parent="1" vertex="1">
          <mxGeometry x="620" y="185" width="110" height="30" as="geometry" />
        </mxCell>
        <mxCell id="5Q4gcwFhn1eUK5E1_kNt-26" style="edgeStyle=orthogonalEdgeStyle;rounded=0;orthogonalLoop=1;jettySize=auto;html=1;entryX=1;entryY=0.5;entryDx=0;entryDy=0;startArrow=classic;startFill=1;endArrow=none;endFill=0;curved=1;strokeColor=#555753;" parent="1" source="5Q4gcwFhn1eUK5E1_kNt-19" target="5Q4gcwFhn1eUK5E1_kNt-16" edge="1">
          <mxGeometry relative="1" as="geometry" />
        </mxCell>
        <mxCell id="5Q4gcwFhn1eUK5E1_kNt-19" value="" style="sketch=0;shadow=0;dashed=0;html=1;strokeColor=none;labelPosition=center;verticalLabelPosition=bottom;verticalAlign=top;outlineConnect=0;align=center;shape=mxgraph.office.databases.database;fillColor=#2072B8;" parent="1" vertex="1">
          <mxGeometry x="780" y="75" width="60" height="70" as="geometry" />
        </mxCell>
        <mxCell id="5Q4gcwFhn1eUK5E1_kNt-28" style="edgeStyle=orthogonalEdgeStyle;rounded=0;orthogonalLoop=1;jettySize=auto;html=1;entryX=1;entryY=0.5;entryDx=0;entryDy=0;startArrow=classic;startFill=1;endArrow=none;endFill=0;curved=1;strokeColor=#555753;" parent="1" source="5Q4gcwFhn1eUK5E1_kNt-20" target="5Q4gcwFhn1eUK5E1_kNt-16" edge="1">
          <mxGeometry relative="1" as="geometry" />
        </mxCell>
        <mxCell id="5Q4gcwFhn1eUK5E1_kNt-20" value="" style="sketch=0;shadow=0;dashed=0;html=1;strokeColor=none;labelPosition=center;verticalLabelPosition=bottom;verticalAlign=top;outlineConnect=0;align=center;shape=mxgraph.office.databases.database;fillColor=#2072B8;" parent="1" vertex="1">
          <mxGeometry x="780" y="260" width="60" height="70" as="geometry" />
        </mxCell>
        <mxCell id="5Q4gcwFhn1eUK5E1_kNt-24" value="" style="sketch=0;shadow=0;dashed=0;html=1;strokeColor=none;labelPosition=center;verticalLabelPosition=bottom;verticalAlign=top;outlineConnect=0;align=center;shape=mxgraph.office.databases.database;fillColor=#2072B8;" parent="1" vertex="1">
          <mxGeometry x="780" y="165" width="60" height="70" as="geometry" />
        </mxCell>
        <mxCell id="5Q4gcwFhn1eUK5E1_kNt-31" value="data&lt;br&gt;generation" style="rounded=0;whiteSpace=wrap;html=1;" parent="1" vertex="1">
          <mxGeometry x="10" y="225" width="70" height="35" as="geometry" />
        </mxCell>
        <mxCell id="5Q4gcwFhn1eUK5E1_kNt-32" value="&lt;font style=&quot;font-size: 17px;&quot; data-font-src=&quot;https://fonts.googleapis.com/css?family=Berkshire+Swash&quot; face=&quot;Berkshire Swash&quot;&gt;&lt;i&gt;&lt;font data-font-src=&quot;https://fonts.googleapis.com/css?family=Merienda+One+&quot; style=&quot;font-size: 17px;&quot;&gt;&lt;font style=&quot;font-size: 17px;&quot;&gt;&lt;font style=&quot;font-size: 17px;&quot;&gt;&lt;font style=&quot;font-size: 17px;&quot;&gt;&lt;font style=&quot;font-size: 17px;&quot;&gt;&lt;font style=&quot;font-size: 16px;&quot;&gt;world&lt;/font&gt;&lt;/font&gt;&lt;/font&gt;&lt;/font&gt;&lt;/font&gt;&lt;/font&gt;&lt;/i&gt;&lt;/font&gt;" style="text;html=1;align=center;verticalAlign=middle;resizable=0;points=[];autosize=1;strokeColor=none;fillColor=none;" parent="1" vertex="1">
          <mxGeometry x="80" y="131.73" width="60" height="30" as="geometry" />
        </mxCell>
        <mxCell id="5Q4gcwFhn1eUK5E1_kNt-33" value="&lt;font style=&quot;font-size: 13px;&quot; face=&quot;Berkshire Swash&quot;&gt;&lt;i&gt;&lt;font style=&quot;font-size: 14px;&quot;&gt;&lt;font style=&quot;font-size: 15px;&quot;&gt;&lt;font style=&quot;font-size: 16px;&quot;&gt;sample&lt;/font&gt;&lt;/font&gt;&lt;/font&gt;&lt;/i&gt;&lt;/font&gt;" style="text;html=1;align=center;verticalAlign=middle;resizable=0;points=[];autosize=1;strokeColor=none;fillColor=none;" parent="1" vertex="1">
          <mxGeometry x="315" y="125" width="70" height="30" as="geometry" />
        </mxCell>
        <mxCell id="5Q4gcwFhn1eUK5E1_kNt-34" value="&lt;font style=&quot;font-size: 13px;&quot; face=&quot;Berkshire Swash&quot;&gt;&lt;i&gt;&lt;font style=&quot;font-size: 14px;&quot;&gt;&lt;font style=&quot;font-size: 15px;&quot;&gt;&lt;font style=&quot;font-size: 16px;&quot;&gt;dataset&lt;/font&gt;&lt;/font&gt;&lt;/font&gt;&lt;/i&gt;&lt;/font&gt;" style="text;html=1;align=center;verticalAlign=middle;resizable=0;points=[];autosize=1;strokeColor=none;fillColor=none;" parent="1" vertex="1">
          <mxGeometry x="535" y="115" width="70" height="30" as="geometry" />
        </mxCell>
        <mxCell id="5Q4gcwFhn1eUK5E1_kNt-35" value="&lt;div&gt;&lt;font data-font-src=&quot;https://fonts.googleapis.com/css?family=Berkshire+Swash&quot; style=&quot;font-size: 13px;&quot; face=&quot;Berkshire Swash&quot;&gt;&lt;i&gt;&lt;font style=&quot;font-size: 14px;&quot;&gt;&lt;font style=&quot;font-size: 15px;&quot;&gt;&lt;font style=&quot;font-size: 16px;&quot;&gt;training data&lt;/font&gt;&lt;/font&gt;&lt;/font&gt;&lt;/i&gt;&lt;/font&gt;&lt;/div&gt;" style="text;html=1;align=center;verticalAlign=middle;resizable=0;points=[];autosize=1;strokeColor=none;fillColor=none;" parent="1" vertex="1">
          <mxGeometry x="755" y="40" width="110" height="30" as="geometry" />
        </mxCell>
        <mxCell id="5Q4gcwFhn1eUK5E1_kNt-36" value="&lt;div&gt;&lt;font data-font-src=&quot;https://fonts.googleapis.com/css?family=Berkshire+Swash&quot; style=&quot;font-size: 13px;&quot; face=&quot;Berkshire Swash&quot;&gt;&lt;i&gt;&lt;font style=&quot;font-size: 14px;&quot;&gt;&lt;font style=&quot;font-size: 15px;&quot;&gt;&lt;font style=&quot;font-size: 16px;&quot;&gt;CV&lt;br&gt;&lt;/font&gt;&lt;/font&gt;&lt;/font&gt;&lt;/i&gt;&lt;/font&gt;&lt;/div&gt;&lt;div&gt;&lt;font data-font-src=&quot;https://fonts.googleapis.com/css?family=Berkshire+Swash&quot; style=&quot;font-size: 13px;&quot; face=&quot;Berkshire Swash&quot;&gt;&lt;i&gt;&lt;font style=&quot;font-size: 14px;&quot;&gt;&lt;font style=&quot;font-size: 15px;&quot;&gt;&lt;font style=&quot;font-size: 16px;&quot;&gt;data&lt;/font&gt;&lt;/font&gt;&lt;/font&gt;&lt;/i&gt;&lt;/font&gt;&lt;/div&gt;" style="text;html=1;align=center;verticalAlign=middle;resizable=0;points=[];autosize=1;strokeColor=none;fillColor=none;" parent="1" vertex="1">
          <mxGeometry x="840" y="175" width="50" height="50" as="geometry" />
        </mxCell>
        <mxCell id="5Q4gcwFhn1eUK5E1_kNt-37" value="&lt;div&gt;&lt;font data-font-src=&quot;https://fonts.googleapis.com/css?family=Berkshire+Swash&quot; style=&quot;font-size: 13px;&quot; face=&quot;Berkshire Swash&quot;&gt;&lt;i&gt;&lt;font style=&quot;font-size: 14px;&quot;&gt;&lt;font style=&quot;font-size: 15px;&quot;&gt;&lt;font style=&quot;font-size: 16px;&quot;&gt;test data&lt;/font&gt;&lt;/font&gt;&lt;/font&gt;&lt;/i&gt;&lt;/font&gt;&lt;/div&gt;" style="text;html=1;align=center;verticalAlign=middle;resizable=0;points=[];autosize=1;strokeColor=none;fillColor=none;" parent="1" vertex="1">
          <mxGeometry x="770" y="330" width="80" height="30" as="geometry" />
        </mxCell>
        <mxCell id="5Q4gcwFhn1eUK5E1_kNt-46" value="&lt;font style=&quot;background-color: rgb(255, 204, 204);&quot; color=&quot;#CC0000&quot;&gt;&lt;b&gt;&lt;font style=&quot;font-size: 15px;&quot;&gt;&lt;font style=&quot;font-size: 15px;&quot;&gt;&lt;font style=&quot;font-size: 15px;&quot;&gt;&lt;font style=&quot;font-size: 15px;&quot;&gt;&lt;font style=&quot;font-size: 14px;&quot;&gt;&lt;font style=&quot;font-size: 14px;&quot;&gt;PREPROCESSING&lt;br&gt; ERROR&lt;br&gt;&lt;/font&gt;&lt;/font&gt;&lt;/font&gt;&lt;/font&gt;&lt;/font&gt;&lt;/font&gt;&lt;/b&gt;&lt;/font&gt;" style="text;html=1;align=center;verticalAlign=middle;resizable=0;points=[];autosize=1;strokeColor=none;fillColor=none;" parent="1" vertex="1">
          <mxGeometry x="605" y="225" width="140" height="50" as="geometry" />
        </mxCell>
        <mxCell id="5Q4gcwFhn1eUK5E1_kNt-65" style="edgeStyle=orthogonalEdgeStyle;rounded=0;orthogonalLoop=1;jettySize=auto;html=1;strokeColor=#555753;" parent="1" source="5Q4gcwFhn1eUK5E1_kNt-47" edge="1">
          <mxGeometry relative="1" as="geometry">
            <mxPoint x="326" y="470" as="targetPoint" />
          </mxGeometry>
        </mxCell>
        <mxCell id="5Q4gcwFhn1eUK5E1_kNt-47" value="" style="sketch=0;shadow=0;dashed=0;html=1;strokeColor=none;labelPosition=center;verticalLabelPosition=bottom;verticalAlign=top;outlineConnect=0;align=center;shape=mxgraph.office.databases.database;fillColor=#2072B8;" parent="1" vertex="1">
          <mxGeometry x="231" y="435" width="60" height="70" as="geometry" />
        </mxCell>
        <mxCell id="5Q4gcwFhn1eUK5E1_kNt-48" value="&lt;div&gt;&lt;font data-font-src=&quot;https://fonts.googleapis.com/css?family=Berkshire+Swash&quot; style=&quot;font-size: 13px;&quot; face=&quot;Berkshire Swash&quot;&gt;&lt;i&gt;&lt;font style=&quot;font-size: 14px;&quot;&gt;&lt;font style=&quot;font-size: 15px;&quot;&gt;&lt;font style=&quot;font-size: 16px;&quot;&gt;training data&lt;/font&gt;&lt;/font&gt;&lt;/font&gt;&lt;/i&gt;&lt;/font&gt;&lt;/div&gt;" style="text;html=1;align=center;verticalAlign=middle;resizable=0;points=[];autosize=1;strokeColor=none;fillColor=none;" parent="1" vertex="1">
          <mxGeometry x="208" y="400" width="110" height="30" as="geometry" />
        </mxCell>
        <mxCell id="5Q4gcwFhn1eUK5E1_kNt-54" value="" style="shape=cube;whiteSpace=wrap;html=1;boundedLbl=1;backgroundOutline=1;darkOpacity=0.05;darkOpacity2=0.1;direction=east;shadow=0;flipH=1;fillColor=#bac8d3;strokeColor=#23445d;" parent="1" vertex="1">
          <mxGeometry x="476" y="425" width="70" height="70" as="geometry" />
        </mxCell>
        <mxCell id="5Q4gcwFhn1eUK5E1_kNt-56" value="" style="shape=cube;whiteSpace=wrap;html=1;boundedLbl=1;backgroundOutline=1;darkOpacity=0.05;darkOpacity2=0.1;direction=east;shadow=0;flipH=1;fillColor=#bac8d3;strokeColor=#23445d;" parent="1" vertex="1">
          <mxGeometry x="486" y="435" width="70" height="70" as="geometry" />
        </mxCell>
        <mxCell id="5Q4gcwFhn1eUK5E1_kNt-71" style="edgeStyle=orthogonalEdgeStyle;rounded=0;orthogonalLoop=1;jettySize=auto;html=1;entryX=1;entryY=0.5;entryDx=0;entryDy=0;curved=1;strokeColor=#555753;" parent="1" source="5Q4gcwFhn1eUK5E1_kNt-57" target="5Q4gcwFhn1eUK5E1_kNt-69" edge="1">
          <mxGeometry relative="1" as="geometry">
            <Array as="points">
              <mxPoint x="516" y="566" />
            </Array>
          </mxGeometry>
        </mxCell>
        <mxCell id="5Q4gcwFhn1eUK5E1_kNt-57" value="" style="shape=cube;whiteSpace=wrap;html=1;boundedLbl=1;backgroundOutline=1;darkOpacity=0.05;darkOpacity2=0.1;direction=east;shadow=0;flipH=1;fillColor=#bac8d3;strokeColor=#23445d;" parent="1" vertex="1">
          <mxGeometry x="496" y="445" width="70" height="70" as="geometry" />
        </mxCell>
        <mxCell id="5Q4gcwFhn1eUK5E1_kNt-58" value="model learning" style="rounded=0;whiteSpace=wrap;html=1;" parent="1" vertex="1">
          <mxGeometry x="331" y="455" width="90" height="30" as="geometry" />
        </mxCell>
        <mxCell id="5Q4gcwFhn1eUK5E1_kNt-60" value="" style="curved=1;endArrow=classic;html=1;rounded=0;exitX=1;exitY=0.5;exitDx=0;exitDy=0;entryX=0;entryY=0;entryDx=70;entryDy=45;entryPerimeter=0;strokeColor=#555753;" parent="1" source="5Q4gcwFhn1eUK5E1_kNt-58" target="5Q4gcwFhn1eUK5E1_kNt-54" edge="1">
          <mxGeometry width="50" height="50" relative="1" as="geometry">
            <mxPoint x="606" y="480" as="sourcePoint" />
            <mxPoint x="656" y="430" as="targetPoint" />
            <Array as="points">
              <mxPoint x="436" y="460" />
              <mxPoint x="456" y="460" />
            </Array>
          </mxGeometry>
        </mxCell>
        <mxCell id="5Q4gcwFhn1eUK5E1_kNt-64" value="" style="curved=1;endArrow=classic;html=1;rounded=0;exitX=1.048;exitY=0.767;exitDx=0;exitDy=0;exitPerimeter=0;strokeColor=#555753;" parent="1" source="5Q4gcwFhn1eUK5E1_kNt-54" edge="1">
          <mxGeometry width="50" height="50" relative="1" as="geometry">
            <mxPoint x="606" y="480" as="sourcePoint" />
            <mxPoint x="426" y="480" as="targetPoint" />
            <Array as="points">
              <mxPoint x="446" y="500" />
            </Array>
          </mxGeometry>
        </mxCell>
        <mxCell id="5Q4gcwFhn1eUK5E1_kNt-70" style="rounded=0;orthogonalLoop=1;jettySize=auto;html=1;entryX=0;entryY=0.5;entryDx=0;entryDy=0;strokeColor=#555753;" parent="1" source="5Q4gcwFhn1eUK5E1_kNt-66" target="5Q4gcwFhn1eUK5E1_kNt-69" edge="1">
          <mxGeometry relative="1" as="geometry" />
        </mxCell>
        <mxCell id="5Q4gcwFhn1eUK5E1_kNt-66" value="" style="sketch=0;shadow=0;dashed=0;html=1;strokeColor=none;labelPosition=center;verticalLabelPosition=bottom;verticalAlign=top;outlineConnect=0;align=center;shape=mxgraph.office.databases.database;fillColor=#2072B8;" parent="1" vertex="1">
          <mxGeometry x="306" y="543" width="60" height="70" as="geometry" />
        </mxCell>
        <mxCell id="5Q4gcwFhn1eUK5E1_kNt-67" value="&lt;div&gt;&lt;font style=&quot;font-size: 13px;&quot; face=&quot;Berkshire Swash&quot;&gt;&lt;i&gt;&lt;font style=&quot;font-size: 14px;&quot;&gt;&lt;font style=&quot;font-size: 15px;&quot;&gt;&lt;font style=&quot;font-size: 16px;&quot;&gt;CV data&lt;/font&gt;&lt;/font&gt;&lt;/font&gt;&lt;/i&gt;&lt;/font&gt;&lt;/div&gt;" style="text;html=1;align=center;verticalAlign=middle;resizable=0;points=[];autosize=1;strokeColor=none;fillColor=none;" parent="1" vertex="1">
          <mxGeometry x="296" y="508" width="80" height="30" as="geometry" />
        </mxCell>
        <mxCell id="5Q4gcwFhn1eUK5E1_kNt-72" style="edgeStyle=orthogonalEdgeStyle;rounded=0;orthogonalLoop=1;jettySize=auto;html=1;curved=1;entryX=1;entryY=1;entryDx=0;entryDy=0;entryPerimeter=0;strokeColor=#555753;" parent="1" source="5Q4gcwFhn1eUK5E1_kNt-69" target="5Q4gcwFhn1eUK5E1_kNt-56" edge="1">
          <mxGeometry relative="1" as="geometry">
            <mxPoint x="476" y="500" as="targetPoint" />
            <Array as="points">
              <mxPoint x="446" y="505" />
            </Array>
          </mxGeometry>
        </mxCell>
        <mxCell id="5Q4gcwFhn1eUK5E1_kNt-69" value="tuning" style="rounded=0;whiteSpace=wrap;html=1;" parent="1" vertex="1">
          <mxGeometry x="401" y="553" width="75" height="25" as="geometry" />
        </mxCell>
        <mxCell id="5Q4gcwFhn1eUK5E1_kNt-93" style="rounded=0;orthogonalLoop=1;jettySize=auto;html=1;strokeColor=#555753;" parent="1" source="5Q4gcwFhn1eUK5E1_kNt-73" edge="1">
          <mxGeometry relative="1" as="geometry">
            <mxPoint x="655.9999999999998" y="500" as="targetPoint" />
          </mxGeometry>
        </mxCell>
        <mxCell id="5Q4gcwFhn1eUK5E1_kNt-73" value="" style="sketch=0;shadow=0;dashed=0;html=1;strokeColor=none;labelPosition=center;verticalLabelPosition=bottom;verticalAlign=top;outlineConnect=0;align=center;shape=mxgraph.office.databases.database;fillColor=#2072B8;" parent="1" vertex="1">
          <mxGeometry x="576" y="553" width="60" height="70" as="geometry" />
        </mxCell>
        <mxCell id="5Q4gcwFhn1eUK5E1_kNt-74" value="&lt;div&gt;&lt;font style=&quot;font-size: 13px;&quot; face=&quot;Berkshire Swash&quot;&gt;&lt;i&gt;&lt;font style=&quot;font-size: 14px;&quot;&gt;&lt;font style=&quot;font-size: 15px;&quot;&gt;&lt;font style=&quot;font-size: 16px;&quot;&gt;test data&lt;/font&gt;&lt;/font&gt;&lt;/font&gt;&lt;/i&gt;&lt;/font&gt;&lt;/div&gt;" style="text;html=1;align=center;verticalAlign=middle;resizable=0;points=[];autosize=1;strokeColor=none;fillColor=none;" parent="1" vertex="1">
          <mxGeometry x="556" y="515" width="80" height="30" as="geometry" />
        </mxCell>
        <mxCell id="5Q4gcwFhn1eUK5E1_kNt-92" style="edgeStyle=orthogonalEdgeStyle;rounded=0;orthogonalLoop=1;jettySize=auto;html=1;entryX=0;entryY=0;entryDx=70;entryDy=45;entryPerimeter=0;strokeColor=#555753;" parent="1" source="5Q4gcwFhn1eUK5E1_kNt-75" target="5Q4gcwFhn1eUK5E1_kNt-77" edge="1">
          <mxGeometry relative="1" as="geometry" />
        </mxCell>
        <mxCell id="5Q4gcwFhn1eUK5E1_kNt-75" value="&lt;div&gt;evaluation,&lt;/div&gt;&lt;div&gt;model selection&lt;br&gt;&lt;/div&gt;" style="rounded=0;whiteSpace=wrap;html=1;" parent="1" vertex="1">
          <mxGeometry x="606" y="462.5" width="110" height="35" as="geometry" />
        </mxCell>
        <mxCell id="5Q4gcwFhn1eUK5E1_kNt-77" value="" style="shape=cube;whiteSpace=wrap;html=1;boundedLbl=1;backgroundOutline=1;darkOpacity=0.05;darkOpacity2=0.1;direction=east;shadow=0;flipH=1;fillColor=#bac8d3;strokeColor=#23445d;" parent="1" vertex="1">
          <mxGeometry x="761" y="435" width="70" height="70" as="geometry" />
        </mxCell>
        <mxCell id="5Q4gcwFhn1eUK5E1_kNt-90" value="" style="curved=1;endArrow=classic;html=1;rounded=0;exitX=0;exitY=0;exitDx=0;exitDy=25;exitPerimeter=0;entryX=0;entryY=0.5;entryDx=0;entryDy=0;strokeColor=#555753;" parent="1" source="5Q4gcwFhn1eUK5E1_kNt-57" target="5Q4gcwFhn1eUK5E1_kNt-75" edge="1">
          <mxGeometry width="50" height="50" relative="1" as="geometry">
            <mxPoint x="566" y="580" as="sourcePoint" />
            <mxPoint x="616" y="530" as="targetPoint" />
            <Array as="points">
              <mxPoint x="586" y="460" />
            </Array>
          </mxGeometry>
        </mxCell>
        <mxCell id="5Q4gcwFhn1eUK5E1_kNt-91" value="" style="curved=1;endArrow=classic;html=1;rounded=0;entryX=-0.005;entryY=0.5;entryDx=0;entryDy=0;entryPerimeter=0;strokeColor=#555753;" parent="1" target="5Q4gcwFhn1eUK5E1_kNt-57" edge="1">
          <mxGeometry width="50" height="50" relative="1" as="geometry">
            <mxPoint x="606" y="480" as="sourcePoint" />
            <mxPoint x="616" y="440" as="targetPoint" />
            <Array as="points">
              <mxPoint x="606" y="490" />
              <mxPoint x="576" y="500" />
            </Array>
          </mxGeometry>
        </mxCell>
        <mxCell id="5Q4gcwFhn1eUK5E1_kNt-94" value="&lt;div&gt;&lt;font style=&quot;font-size: 13px;&quot; face=&quot;Berkshire Swash&quot;&gt;&lt;i&gt;&lt;font style=&quot;font-size: 14px;&quot;&gt;&lt;font style=&quot;font-size: 15px;&quot;&gt;&lt;font style=&quot;font-size: 16px;&quot;&gt;models&lt;/font&gt;&lt;/font&gt;&lt;/font&gt;&lt;/i&gt;&lt;/font&gt;&lt;/div&gt;" style="text;html=1;align=center;verticalAlign=middle;resizable=0;points=[];autosize=1;strokeColor=none;fillColor=none;" parent="1" vertex="1">
          <mxGeometry x="496" y="390" width="70" height="30" as="geometry" />
        </mxCell>
        <mxCell id="5Q4gcwFhn1eUK5E1_kNt-95" value="&lt;div&gt;&lt;font style=&quot;font-size: 13px;&quot; face=&quot;Berkshire Swash&quot;&gt;&lt;i&gt;&lt;font style=&quot;font-size: 14px;&quot;&gt;&lt;font style=&quot;font-size: 15px;&quot;&gt;&lt;font style=&quot;font-size: 16px;&quot;&gt;best model&lt;/font&gt;&lt;/font&gt;&lt;/font&gt;&lt;/i&gt;&lt;/font&gt;&lt;/div&gt;" style="text;html=1;align=center;verticalAlign=middle;resizable=0;points=[];autosize=1;strokeColor=none;fillColor=none;" parent="1" vertex="1">
          <mxGeometry x="746" y="400" width="100" height="30" as="geometry" />
        </mxCell>
        <mxCell id="5Q4gcwFhn1eUK5E1_kNt-96" value="&lt;font style=&quot;background-color: rgb(255, 204, 204);&quot; color=&quot;#CC0000&quot;&gt;&lt;b&gt;&lt;font style=&quot;font-size: 15px;&quot;&gt;&lt;font style=&quot;font-size: 15px;&quot;&gt;&lt;font style=&quot;font-size: 15px;&quot;&gt;&lt;font style=&quot;font-size: 15px;&quot;&gt;&lt;font style=&quot;font-size: 14px;&quot;&gt;&lt;font style=&quot;font-size: 14px;&quot;&gt;TRAINING ERROR&lt;br&gt;&lt;/font&gt;&lt;/font&gt;&lt;/font&gt;&lt;/font&gt;&lt;/font&gt;&lt;/font&gt;&lt;/b&gt;&lt;/font&gt;" style="text;html=1;align=center;verticalAlign=middle;resizable=0;points=[];autosize=1;strokeColor=none;fillColor=none;" parent="1" vertex="1">
          <mxGeometry x="301" y="420" width="150" height="30" as="geometry" />
        </mxCell>
        <mxCell id="5Q4gcwFhn1eUK5E1_kNt-97" value="&lt;font style=&quot;background-color: rgb(255, 204, 204);&quot; color=&quot;#CC0000&quot;&gt;&lt;b&gt;&lt;font style=&quot;font-size: 15px;&quot;&gt;&lt;font style=&quot;font-size: 15px;&quot;&gt;&lt;font style=&quot;font-size: 15px;&quot;&gt;&lt;font style=&quot;font-size: 15px;&quot;&gt;&lt;font style=&quot;font-size: 14px;&quot;&gt;&lt;font style=&quot;font-size: 14px;&quot;&gt;TUNING ERROR&lt;br&gt;&lt;/font&gt;&lt;/font&gt;&lt;/font&gt;&lt;/font&gt;&lt;/font&gt;&lt;/font&gt;&lt;/b&gt;&lt;/font&gt;" style="text;html=1;align=center;verticalAlign=middle;resizable=0;points=[];autosize=1;strokeColor=none;fillColor=none;" parent="1" vertex="1">
          <mxGeometry x="376" y="583" width="130" height="30" as="geometry" />
        </mxCell>
        <mxCell id="5Q4gcwFhn1eUK5E1_kNt-98" value="&lt;div&gt;&lt;font style=&quot;background-color: rgb(255, 204, 204);&quot; color=&quot;#CC0000&quot;&gt;&lt;b&gt;&lt;font style=&quot;font-size: 15px;&quot;&gt;&lt;font style=&quot;font-size: 15px;&quot;&gt;&lt;font style=&quot;font-size: 15px;&quot;&gt;&lt;font style=&quot;font-size: 15px;&quot;&gt;&lt;font style=&quot;font-size: 14px;&quot;&gt;&lt;font style=&quot;font-size: 14px;&quot;&gt;MODEL SELECTION&lt;/font&gt;&lt;/font&gt;&lt;/font&gt;&lt;/font&gt;&lt;/font&gt;&lt;/font&gt;&lt;/b&gt;&lt;/font&gt;&lt;/div&gt;&lt;div&gt;&lt;font style=&quot;background-color: rgb(255, 204, 204);&quot; color=&quot;#CC0000&quot;&gt;&lt;b&gt;&lt;font style=&quot;font-size: 15px;&quot;&gt;&lt;font style=&quot;font-size: 15px;&quot;&gt;&lt;font style=&quot;font-size: 15px;&quot;&gt;&lt;font style=&quot;font-size: 15px;&quot;&gt;&lt;font style=&quot;font-size: 14px;&quot;&gt;&lt;font style=&quot;font-size: 14px;&quot;&gt;&amp;nbsp;ERROR&lt;/font&gt;&lt;/font&gt;&lt;/font&gt;&lt;/font&gt;&lt;/font&gt;&lt;/font&gt;&lt;/b&gt;&lt;/font&gt;&lt;/div&gt;" style="text;html=1;align=center;verticalAlign=middle;resizable=0;points=[];autosize=1;strokeColor=none;fillColor=none;" parent="1" vertex="1">
          <mxGeometry x="581" y="410" width="160" height="50" as="geometry" />
        </mxCell>
        <mxCell id="5Q4gcwFhn1eUK5E1_kNt-100" style="edgeStyle=orthogonalEdgeStyle;rounded=0;orthogonalLoop=1;jettySize=auto;html=1;curved=1;entryX=0;entryY=0.5;entryDx=0;entryDy=0;strokeColor=#555753;" parent="1" source="5Q4gcwFhn1eUK5E1_kNt-101" target="5Q4gcwFhn1eUK5E1_kNt-101" edge="1">
          <mxGeometry relative="1" as="geometry">
            <mxPoint x="242" y="830" as="targetPoint" />
            <Array as="points">
              <mxPoint x="262" y="800" />
              <mxPoint x="192" y="800" />
              <mxPoint x="192" y="730" />
            </Array>
          </mxGeometry>
        </mxCell>
        <mxCell id="5Q4gcwFhn1eUK5E1_kNt-108" style="edgeStyle=orthogonalEdgeStyle;rounded=0;orthogonalLoop=1;jettySize=auto;html=1;entryX=0;entryY=0;entryDx=70;entryDy=45;entryPerimeter=0;strokeColor=#555753;" parent="1" source="5Q4gcwFhn1eUK5E1_kNt-101" target="5Q4gcwFhn1eUK5E1_kNt-106" edge="1">
          <mxGeometry relative="1" as="geometry" />
        </mxCell>
        <mxCell id="5Q4gcwFhn1eUK5E1_kNt-101" value="" style="shape=image;html=1;verticalAlign=top;verticalLabelPosition=bottom;labelBackgroundColor=#ffffff;imageAspect=0;aspect=fixed;image=https://cdn2.iconfinder.com/data/icons/whcompare-isometric-web-hosting-servers/50/connected-globe-128.png" parent="1" vertex="1">
          <mxGeometry x="222" y="690" width="80" height="80" as="geometry" />
        </mxCell>
        <mxCell id="5Q4gcwFhn1eUK5E1_kNt-102" value="real-world&lt;br&gt;events streaming" style="rounded=0;whiteSpace=wrap;html=1;" parent="1" vertex="1">
          <mxGeometry x="132" y="755" width="100" height="35" as="geometry" />
        </mxCell>
        <mxCell id="5Q4gcwFhn1eUK5E1_kNt-103" value="&lt;font style=&quot;font-size: 17px;&quot; data-font-src=&quot;https://fonts.googleapis.com/css?family=Berkshire+Swash&quot; face=&quot;Berkshire Swash&quot;&gt;&lt;i&gt;&lt;font data-font-src=&quot;https://fonts.googleapis.com/css?family=Merienda+One+&quot; style=&quot;font-size: 17px;&quot;&gt;&lt;font style=&quot;font-size: 17px;&quot;&gt;&lt;font style=&quot;font-size: 17px;&quot;&gt;&lt;font style=&quot;font-size: 17px;&quot;&gt;&lt;font style=&quot;font-size: 17px;&quot;&gt;&lt;font style=&quot;font-size: 16px;&quot;&gt;world&lt;/font&gt;&lt;/font&gt;&lt;/font&gt;&lt;/font&gt;&lt;/font&gt;&lt;/font&gt;&lt;/i&gt;&lt;/font&gt;" style="text;html=1;align=center;verticalAlign=middle;resizable=0;points=[];autosize=1;strokeColor=none;fillColor=none;" parent="1" vertex="1">
          <mxGeometry x="232" y="660" width="60" height="30" as="geometry" />
        </mxCell>
        <mxCell id="5Q4gcwFhn1eUK5E1_kNt-118" style="edgeStyle=orthogonalEdgeStyle;rounded=0;orthogonalLoop=1;jettySize=auto;html=1;strokeColor=#555753;" parent="1" source="5Q4gcwFhn1eUK5E1_kNt-106" target="5Q4gcwFhn1eUK5E1_kNt-120" edge="1">
          <mxGeometry relative="1" as="geometry">
            <mxPoint x="752" y="725" as="targetPoint" />
            <Array as="points">
              <mxPoint x="752" y="725" />
              <mxPoint x="752" y="725" />
            </Array>
          </mxGeometry>
        </mxCell>
        <mxCell id="5Q4gcwFhn1eUK5E1_kNt-106" value="" style="shape=cube;whiteSpace=wrap;html=1;boundedLbl=1;backgroundOutline=1;darkOpacity=0.05;darkOpacity2=0.1;direction=east;shadow=0;flipH=1;fillColor=#bac8d3;strokeColor=#23445d;" parent="1" vertex="1">
          <mxGeometry x="492" y="685" width="70" height="70" as="geometry" />
        </mxCell>
        <mxCell id="5Q4gcwFhn1eUK5E1_kNt-107" value="&lt;div&gt;&lt;font style=&quot;font-size: 13px;&quot; face=&quot;Berkshire Swash&quot;&gt;&lt;i&gt;&lt;font style=&quot;font-size: 14px;&quot;&gt;&lt;font style=&quot;font-size: 15px;&quot;&gt;&lt;font style=&quot;font-size: 16px;&quot;&gt;best model&lt;/font&gt;&lt;/font&gt;&lt;/font&gt;&lt;/i&gt;&lt;/font&gt;&lt;/div&gt;" style="text;html=1;align=center;verticalAlign=middle;resizable=0;points=[];autosize=1;strokeColor=none;fillColor=none;" parent="1" vertex="1">
          <mxGeometry x="477" y="650" width="100" height="30" as="geometry" />
        </mxCell>
        <mxCell id="5Q4gcwFhn1eUK5E1_kNt-109" value="preprocessing" style="rounded=0;whiteSpace=wrap;html=1;" parent="1" vertex="1">
          <mxGeometry x="342" y="715" width="100" height="30" as="geometry" />
        </mxCell>
        <mxCell id="5Q4gcwFhn1eUK5E1_kNt-119" value="serving" style="rounded=0;whiteSpace=wrap;html=1;" parent="1" vertex="1">
          <mxGeometry x="619.5" y="715" width="85" height="30" as="geometry" />
        </mxCell>
        <mxCell id="5Q4gcwFhn1eUK5E1_kNt-120" value="" style="sketch=0;pointerEvents=1;shadow=0;dashed=0;html=1;strokeColor=none;labelPosition=center;verticalLabelPosition=bottom;verticalAlign=top;outlineConnect=0;align=center;shape=mxgraph.office.users.user;fillColor=#2072B8;" parent="1" vertex="1">
          <mxGeometry x="787" y="695" width="46" height="50" as="geometry" />
        </mxCell>
        <mxCell id="5Q4gcwFhn1eUK5E1_kNt-123" value="&lt;font style=&quot;background-color: rgb(255, 204, 204);&quot; color=&quot;#CC0000&quot;&gt;&lt;b&gt;&lt;font style=&quot;font-size: 15px;&quot;&gt;&lt;font style=&quot;font-size: 15px;&quot;&gt;&lt;font style=&quot;font-size: 15px;&quot;&gt;&lt;font style=&quot;font-size: 15px;&quot;&gt;&lt;font style=&quot;font-size: 14px;&quot;&gt;&lt;font style=&quot;font-size: 14px;&quot;&gt;DEPLOYMENT ERROR&lt;br&gt;&lt;/font&gt;&lt;/font&gt;&lt;/font&gt;&lt;/font&gt;&lt;/font&gt;&lt;/font&gt;&lt;/b&gt;&lt;/font&gt;" style="text;html=1;align=center;verticalAlign=middle;resizable=0;points=[];autosize=1;strokeColor=none;fillColor=none;" parent="1" vertex="1">
          <mxGeometry x="446" y="810" width="170" height="30" as="geometry" />
        </mxCell>
        <mxCell id="5Q4gcwFhn1eUK5E1_kNt-124" value="&lt;div&gt;&lt;font style=&quot;background-color: rgb(229, 204, 255);&quot; color=&quot;#75507b&quot;&gt;&lt;b&gt;&lt;font style=&quot;font-size: 15px;&quot;&gt;&lt;font style=&quot;font-size: 15px;&quot;&gt;&lt;font style=&quot;font-size: 15px;&quot;&gt;&lt;font style=&quot;font-size: 15px;&quot;&gt;&lt;font style=&quot;font-size: 14px;&quot;&gt;&lt;font style=&quot;font-size: 14px;&quot;&gt;UNSEEN DATA&lt;/font&gt;&lt;/font&gt;&lt;/font&gt;&lt;/font&gt;&lt;/font&gt;&lt;/font&gt;&lt;/b&gt;&lt;/font&gt;&lt;/div&gt;&lt;div&gt;&lt;font style=&quot;background-color: rgb(229, 204, 255);&quot; color=&quot;#75507b&quot;&gt;&lt;b&gt;&lt;font style=&quot;font-size: 15px;&quot;&gt;&lt;font style=&quot;font-size: 15px;&quot;&gt;&lt;font style=&quot;font-size: 15px;&quot;&gt;&lt;font style=&quot;font-size: 15px;&quot;&gt;&lt;font style=&quot;font-size: 14px;&quot;&gt;&lt;font style=&quot;font-size: 14px;&quot;&gt;&amp;nbsp;ERROR&lt;/font&gt;&lt;/font&gt;&lt;/font&gt;&lt;/font&gt;&lt;/font&gt;&lt;/font&gt;&lt;/b&gt;&lt;/font&gt;&lt;/div&gt;" style="text;html=1;align=center;verticalAlign=middle;resizable=0;points=[];autosize=1;strokeColor=none;fillColor=none;" parent="1" vertex="1">
          <mxGeometry x="102" y="705" width="120" height="50" as="geometry" />
        </mxCell>
        <mxCell id="5Q4gcwFhn1eUK5E1_kNt-126" value="&lt;b&gt;&lt;font data-font-src=&quot;https://fonts.googleapis.com/css?family=Merienda+One+&quot; style=&quot;font-size: 19px;&quot; face=&quot;Merienda One&quot;&gt;&lt;i&gt;&lt;font style=&quot;font-size: 19px;&quot;&gt;&lt;font style=&quot;font-size: 19px;&quot;&gt;&lt;font style=&quot;font-size: 19px;&quot;&gt;&lt;font style=&quot;font-size: 19px;&quot;&gt;&lt;font style=&quot;font-size: 18px;&quot;&gt;&lt;font style=&quot;font-size: 18px;&quot;&gt;DATA PREPARATION&lt;br&gt;&lt;/font&gt;&lt;/font&gt;&lt;/font&gt;&lt;/font&gt;&lt;/font&gt;&lt;/font&gt;&lt;/i&gt;&lt;/font&gt;&lt;/b&gt;" style="text;html=1;align=center;verticalAlign=middle;resizable=0;points=[];autosize=1;strokeColor=none;fillColor=none;" parent="1" vertex="1">
          <mxGeometry x="10" y="35" width="240" height="40" as="geometry" />
        </mxCell>
        <mxCell id="5Q4gcwFhn1eUK5E1_kNt-128" value="&lt;div align=&quot;left&quot;&gt;&lt;b&gt;&lt;font data-font-src=&quot;https://fonts.googleapis.com/css?family=Merienda+One+&quot; style=&quot;font-size: 19px;&quot; face=&quot;Merienda One&quot;&gt;&lt;i&gt;&lt;font style=&quot;font-size: 19px;&quot;&gt;&lt;font style=&quot;font-size: 19px;&quot;&gt;&lt;font style=&quot;font-size: 19px;&quot;&gt;&lt;font style=&quot;font-size: 19px;&quot;&gt;&lt;font style=&quot;font-size: 18px;&quot;&gt;&lt;font style=&quot;font-size: 18px;&quot;&gt;MODEL&lt;/font&gt;&lt;/font&gt;&lt;/font&gt;&lt;/font&gt;&lt;/font&gt;&lt;/font&gt;&lt;/i&gt;&lt;/font&gt;&lt;/b&gt;&lt;/div&gt;&lt;div align=&quot;left&quot;&gt;&lt;b&gt;&lt;font data-font-src=&quot;https://fonts.googleapis.com/css?family=Merienda+One+&quot; style=&quot;font-size: 19px;&quot; face=&quot;Merienda One&quot;&gt;&lt;i&gt;&lt;font style=&quot;font-size: 19px;&quot;&gt;&lt;font style=&quot;font-size: 19px;&quot;&gt;&lt;font style=&quot;font-size: 19px;&quot;&gt;&lt;font style=&quot;font-size: 19px;&quot;&gt;&lt;font style=&quot;font-size: 18px;&quot;&gt;&lt;font style=&quot;font-size: 18px;&quot;&gt;DEVELOPMENT&lt;/font&gt;&lt;/font&gt;&lt;/font&gt;&lt;/font&gt;&lt;/font&gt;&lt;/font&gt;&lt;/i&gt;&lt;/font&gt;&lt;/b&gt;&lt;/div&gt;" style="text;html=1;align=left;verticalAlign=middle;resizable=0;points=[];autosize=1;strokeColor=none;fillColor=none;" parent="1" vertex="1">
          <mxGeometry x="20" y="385" width="190" height="60" as="geometry" />
        </mxCell>
        <mxCell id="5Q4gcwFhn1eUK5E1_kNt-131" value="&lt;div align=&quot;left&quot;&gt;&lt;b&gt;&lt;font data-font-src=&quot;https://fonts.googleapis.com/css?family=Merienda+One+&quot; style=&quot;font-size: 19px;&quot; face=&quot;Merienda One&quot;&gt;&lt;i&gt;&lt;font style=&quot;font-size: 19px;&quot;&gt;&lt;font style=&quot;font-size: 19px;&quot;&gt;&lt;font style=&quot;font-size: 19px;&quot;&gt;&lt;font style=&quot;font-size: 19px;&quot;&gt;&lt;font style=&quot;font-size: 18px;&quot;&gt;&lt;font style=&quot;font-size: 18px;&quot;&gt;MODEL&lt;/font&gt;&lt;/font&gt;&lt;/font&gt;&lt;/font&gt;&lt;/font&gt;&lt;/font&gt;&lt;/i&gt;&lt;/font&gt;&lt;/b&gt;&lt;/div&gt;&lt;div align=&quot;left&quot;&gt;&lt;b&gt;&lt;font data-font-src=&quot;https://fonts.googleapis.com/css?family=Merienda+One+&quot; style=&quot;font-size: 19px;&quot; face=&quot;Merienda One&quot;&gt;&lt;i&gt;&lt;font style=&quot;font-size: 19px;&quot;&gt;&lt;font style=&quot;font-size: 19px;&quot;&gt;&lt;font style=&quot;font-size: 19px;&quot;&gt;&lt;font style=&quot;font-size: 19px;&quot;&gt;&lt;font style=&quot;font-size: 18px;&quot;&gt;&lt;font style=&quot;font-size: 18px;&quot;&gt;SERVING&lt;/font&gt;&lt;/font&gt;&lt;/font&gt;&lt;/font&gt;&lt;/font&gt;&lt;/font&gt;&lt;/i&gt;&lt;/font&gt;&lt;/b&gt;&lt;/div&gt;" style="text;html=1;align=left;verticalAlign=middle;resizable=0;points=[];autosize=1;strokeColor=none;fillColor=none;" parent="1" vertex="1">
          <mxGeometry x="20" y="645" width="120" height="60" as="geometry" />
        </mxCell>
        <mxCell id="5Q4gcwFhn1eUK5E1_kNt-132" value="&lt;div&gt;&lt;font style=&quot;font-size: 13px;&quot; face=&quot;Berkshire Swash&quot;&gt;&lt;i&gt;&lt;font style=&quot;font-size: 14px;&quot;&gt;&lt;font style=&quot;font-size: 15px;&quot;&gt;&lt;font style=&quot;font-size: 16px;&quot;&gt;decision-maker&lt;br&gt;&lt;/font&gt;&lt;/font&gt;&lt;/font&gt;&lt;/i&gt;&lt;/font&gt;&lt;/div&gt;" style="text;html=1;align=center;verticalAlign=middle;resizable=0;points=[];autosize=1;strokeColor=none;fillColor=none;" parent="1" vertex="1">
          <mxGeometry x="745" y="660" width="130" height="30" as="geometry" />
        </mxCell>
        <mxCell id="WF5fQh1YqC_wVKddmgIf-1" value="&lt;div&gt;&lt;font style=&quot;background-color: rgb(229, 204, 255);&quot; color=&quot;#75507b&quot;&gt;&lt;b&gt;&lt;font style=&quot;font-size: 15px;&quot;&gt;&lt;font style=&quot;font-size: 15px;&quot;&gt;&lt;font style=&quot;font-size: 15px;&quot;&gt;&lt;font style=&quot;font-size: 15px;&quot;&gt;&lt;font style=&quot;font-size: 14px;&quot;&gt;&lt;font style=&quot;font-size: 14px;&quot;&gt;MEASUREMENT&lt;/font&gt;&lt;/font&gt;&lt;/font&gt;&lt;/font&gt;&lt;/font&gt;&lt;/font&gt;&lt;/b&gt;&lt;/font&gt;&lt;/div&gt;&lt;div&gt;&lt;font style=&quot;background-color: rgb(229, 204, 255);&quot; color=&quot;#75507b&quot;&gt;&lt;b&gt;&lt;font style=&quot;font-size: 15px;&quot;&gt;&lt;font style=&quot;font-size: 15px;&quot;&gt;&lt;font style=&quot;font-size: 15px;&quot;&gt;&lt;font style=&quot;font-size: 15px;&quot;&gt;&lt;font style=&quot;font-size: 14px;&quot;&gt;&lt;font style=&quot;font-size: 14px;&quot;&gt;ERROR&lt;/font&gt;&lt;/font&gt;&lt;/font&gt;&lt;/font&gt;&lt;/font&gt;&lt;/font&gt;&lt;/b&gt;&lt;/font&gt;&lt;/div&gt;" style="text;html=1;align=center;verticalAlign=middle;resizable=0;points=[];autosize=1;strokeColor=none;fillColor=none;" parent="1" vertex="1">
          <mxGeometry x="400" y="217.5" width="130" height="50" as="geometry" />
        </mxCell>
        <mxCell id="WF5fQh1YqC_wVKddmgIf-2" value="&lt;div&gt;&lt;br&gt;&lt;/div&gt;&lt;div&gt;&lt;font style=&quot;font-size: 7px;&quot;&gt;&amp;nbsp;&lt;/font&gt;&lt;br&gt;&lt;/div&gt;&lt;div&gt;&lt;font style=&quot;background-color: rgb(229, 204, 255);&quot; color=&quot;#75507b&quot;&gt;&lt;b&gt;&lt;font style=&quot;font-size: 15px;&quot;&gt;&lt;font style=&quot;font-size: 15px;&quot;&gt;&lt;font style=&quot;font-size: 15px;&quot;&gt;&lt;font style=&quot;font-size: 15px;&quot;&gt;&lt;font style=&quot;font-size: 14px;&quot;&gt;&lt;font style=&quot;font-size: 14px;&quot;&gt;SAMPLING ERROR&lt;/font&gt;&lt;/font&gt;&lt;/font&gt;&lt;/font&gt;&lt;/font&gt;&lt;/font&gt;&lt;/b&gt;&lt;/font&gt;&lt;/div&gt;" style="text;html=1;align=center;verticalAlign=middle;resizable=0;points=[];autosize=1;strokeColor=none;fillColor=none;" parent="1" vertex="1">
          <mxGeometry x="141" y="207.5" width="150" height="60" as="geometry" />
        </mxCell>
        <mxCell id="vEB40iM_k4arkbc29vXw-1" value="" style="endArrow=none;html=1;rounded=0;edgeStyle=orthogonalEdgeStyle;curved=1;endFill=0;" parent="1" edge="1">
          <mxGeometry width="50" height="50" relative="1" as="geometry">
            <mxPoint x="342" y="755" as="sourcePoint" />
            <mxPoint x="532" y="810" as="targetPoint" />
            <Array as="points">
              <mxPoint x="342" y="770" />
              <mxPoint x="532" y="770" />
            </Array>
          </mxGeometry>
        </mxCell>
        <mxCell id="vEB40iM_k4arkbc29vXw-2" value="" style="endArrow=none;html=1;rounded=0;edgeStyle=orthogonalEdgeStyle;curved=1;endFill=0;" parent="1" edge="1">
          <mxGeometry width="50" height="50" relative="1" as="geometry">
            <mxPoint x="710" y="750" as="sourcePoint" />
            <mxPoint x="532" y="810" as="targetPoint" />
            <Array as="points">
              <mxPoint x="710" y="770" />
              <mxPoint x="532" y="770" />
            </Array>
          </mxGeometry>
        </mxCell>
      </root>
    </mxGraphModel>
  </diagram>
</mxfile>
